# xmcd
#
# Track frame offsets:
#	150
#	12193
#	23621
#	35376
#	45937
#	59292
#	73255
#	90118
#	102353
#	111252
#	122788
#	138959
#
# Disc length: 1981 seconds
#
# Revision: 0
# Processed by: cddbd v1.4PL0 Copyright (c) Steve Scherf et al.
# Submitted via: dBpowerAMP V4.0
#
DISCID=9107bb0c
DTITLE=Wildwood Valley Boys - Back Country Road
DYEAR=2002
DGENRE=Bluegrass
TTITLE0=The Long Valley
TTITLE1=Black Dust Fever
TTITLE2=Let Me Be Your Man
TTITLE3=Mom and Dad's Waltz
TTITLE4=Ruby the Beauty
TTITLE5=My World's a Paradise
TTITLE6=She Knew
TTITLE7=Back Country Road
TTITLE8=Paul's Ride
TTITLE9=Paradise
TTITLE10=Shackles and Chains
TTITLE11=Heartbreakin' Devil
EXTD=
EXTT0=
EXTT1=
EXTT2=
EXTT3=
EXTT4=
EXTT5=
EXTT6=
EXTT7=
EXTT8=
EXTT9=
EXTT10=
EXTT11=
PLAYORDER=
